# Blender 3.2.0 Alpha
# www.blender.org
mtllib SlicedCube1.mtl
o Sliced01
v 0.500000 0.500000 -0.500000
v 0.500000 -0.500000 -0.500000
v 0.500000 0.000000 0.500000
v 0.500000 -0.500000 0.500000
v -0.500000 0.500000 -0.500000
v -0.500000 -0.500000 -0.500000
v -0.500000 0.000000 0.500000
v -0.500000 -0.500000 0.500000
v 0.500000 0.500000 0.000000
v -0.500000 0.500000 0.000000
vn -0.0000 0.7071 0.7071
vn -0.0000 -1.0000 -0.0000
vn -0.0000 -0.0000 -1.0000
vn -0.0000 1.0000 -0.0000
vn -0.0000 -0.0000 1.0000
vn 1.0000 -0.0000 -0.0000
vn -1.0000 -0.0000 -0.0000
vt 0.625000 0.500000
vt 0.375000 0.500000
vt 0.625000 0.750000
vt 0.500000 0.750000
vt 0.375000 0.750000
vt 0.875000 0.500000
vt 0.625000 0.250000
vt 0.125000 0.500000
vt 0.375000 0.250000
vt 0.875000 0.750000
vt 0.500000 1.000000
vt 0.500000 0.000000
vt 0.125000 0.750000
vt 0.375000 1.000000
vt 0.375000 0.000000
vt 0.625000 0.625000
vt 0.875000 0.625000
vt 0.625000 0.125000
s 0
usemtl Material
f 9/16/1 10/17/1 7/10/1 3/3/1
f 6/8/2 2/2/2 4/5/2 8/13/2
f 6/9/3 5/7/3 1/1/3 2/2/3
f 1/1/4 5/6/4 10/17/4 9/16/4
f 4/5/5 3/4/5 7/11/5 8/14/5
f 2/2/6 1/1/6 9/16/6 3/4/6 4/5/6
f 8/15/7 7/12/7 10/18/7 5/7/7 6/9/7
